<svg width="560" height="436" viewBox="0 0 560 436" fill="none" xmlns="http://www.w3.org/2000/svg">
<path d="M542.62 231.814C548.22 161.814 505.287 137.648 483.12 134.314C482.25 134.814 481.032 138.614 483.12 149.814C453.52 -28.5855 328.12 13.8145 269.12 57.3145L286.12 39.3145L279.62 32.8145C195.62 -15.9855 130.287 34.4811 108.12 65.8145C-107.88 216.314 108.12 322.314 118.62 322.314M542.62 231.814C549.62 245.814 555.12 296.315 490.12 343.814M542.62 231.814C472.017 325.84 420.752 281.8 395.438 231.814M490.12 343.814C483.12 366.314 467.62 447.815 345.62 415.814C311.12 415.814 301.12 435.815 251.62 374.314M490.12 343.814C448.12 396.696 394.005 362.182 372.198 338.314M251.62 374.314C246.62 367.814 179.62 412.815 118.62 322.314M251.62 374.314C263.787 367.148 288.62 349.515 290.62 336.314M118.62 322.314C111.62 308.481 99.7201 278.615 108.12 269.814M108.12 269.814C118.62 258.814 96.6201 204.314 207.12 187.814M108.12 269.814C89.3213 261.221 64.8866 242.352 66.5981 217.814M207.12 187.814C225.12 177.814 257.12 127.314 324.12 187.814M207.12 187.814C199.736 203.11 192.144 233.51 207.12 255.049M224.12 269.814C216.601 265.804 211.074 260.735 207.12 255.049M207.12 255.049C206.953 268.804 199.72 297.115 172.12 300.314M98.6201 172.814C76.4388 189.024 67.542 204.281 66.5981 217.814M98.6201 172.814C77.8201 160.814 82.2868 129.481 87.1201 115.314M98.6201 172.814C128.453 187.648 189.42 196.014 194.62 110.814M66.5981 217.814C76.9388 225.314 99.7201 234.314 108.12 210.314M269.12 102.814C277.543 110.841 293.871 119.962 312.62 117.298M352.62 91.3145C339.321 108.182 325.407 115.481 312.62 117.298M312.62 117.298C324.719 135.846 345.362 158.664 366.62 164.236M419.12 123.314C417.589 127.303 416 130.964 414.36 134.314M366.62 164.236C358.453 143.762 353.62 102.814 399.62 102.814M366.62 164.236C383.461 168.651 400.689 162.243 414.36 134.314M414.36 134.314C438.447 145.981 478.42 181.814 445.62 231.814M383.62 202.814C386.535 212.051 390.491 222.046 395.438 231.814M269.12 231.814C285.12 249.648 322.82 280.514 345.62 261.314M345.62 261.314C341.453 272.648 337.02 296.315 352.62 300.314M345.62 261.314C348.816 256.607 353.822 250.414 359.815 244.814M395.438 231.814C383.443 227.256 370.159 235.151 359.815 244.814M359.815 244.814C352.75 239.148 341.42 222.814 352.62 202.814M290.62 336.314C279.42 334.715 271.62 314.981 269.12 305.314M290.62 336.314C310.785 346.328 350.187 357.606 372.198 338.314M383.62 321.314C380.859 328.605 376.931 334.167 372.198 338.314" stroke="white" stroke-width="25" stroke-linecap="round"/>
</svg>
